<svg xmlns="http://www.w3.org/2000/svg" viewBox="0 0 134.85 29.92"><defs><style>.cls-1{fill:#ffffff;}</style></defs><title>LSacademia 1</title><g id="Layer_2" data-name="Layer 2"><g id="Content"><path class="cls-1" d="M1.67,16.76c0,1.15.49,1.64,1.65,1.64h7.77c1.15,0,1.65-.49,1.65-1.64V14.48H10.4v1.15a.52.52,0,0,1-.57.57h-5a.51.51,0,0,1-.56-.57V1.94C4.25.79,3.76.31,2.6.31H0v2.2H1.11a.5.5,0,0,1,.56.57ZM13.87,16a8.13,8.13,0,0,0,6,2.7c3.6,0,5.76-2.39,5.76-5.16,0-5.94-8.75-5.12-8.75-8.79,0-1.36,1.23-2.44,3.19-2.44,1.44,0,2.8.69,2.8,1.64v.85h2.37V3.33C25.26.87,22,0,20.09,0c-3.42,0-5.81,2.13-5.81,4.84,0,5.64,8.77,5,8.77,8.84a2.82,2.82,0,0,1-3.11,2.69,6.61,6.61,0,0,1-4.55-2.18Zm29,2.39H27.06L33.34,1h3.11ZM38,15.69,34.88,6l-3.11,9.66Zm16.41,2.74h-4a6.83,6.83,0,0,1-4.71-1.64,5.63,5.63,0,0,1-2-4.48,5.94,5.94,0,0,1,2-4.64,7.11,7.11,0,0,1,4.86-1.72h3.83V8.61h-3.7a3.45,3.45,0,0,0-2.57,1,3.56,3.56,0,0,0-1,2.59,3.56,3.56,0,0,0,.94,2.54,3.25,3.25,0,0,0,2.48,1h3.86Zm13.18-5.36a5.33,5.33,0,0,1-1.65,4,6.29,6.29,0,0,1-8.69-.38A6.79,6.79,0,0,1,55.62,12a6.48,6.48,0,0,1,1.59-4.47,5.38,5.38,0,0,1,4.24-1.81,3.89,3.89,0,0,1,2.78,1.11v-.8h3.4Zm-3.4-.87v-.95a3,3,0,0,0-.7-1.93,2.15,2.15,0,0,0-1.75-.86,2.33,2.33,0,0,0-2.06,1.26A4.45,4.45,0,0,0,59,12.15a4.93,4.93,0,0,0,.69,2.56,2.36,2.36,0,0,0,2.08,1.38,2.31,2.31,0,0,0,1.08-.28q1.36-.71,1.34-3.61m17.06.87a5.32,5.32,0,0,1-1.65,4A6.29,6.29,0,0,1,71,16.74,6.79,6.79,0,0,1,69.28,12a6.49,6.49,0,0,1,1.6-4.47,5.38,5.38,0,0,1,4.24-1.81A3.89,3.89,0,0,1,77.9,6.87V.7h3.4Zm-3.4-.87v-.95a3,3,0,0,0-.7-1.93,2.15,2.15,0,0,0-1.75-.86A2.33,2.33,0,0,0,73.4,9.71a4.45,4.45,0,0,0-.7,2.44,4.93,4.93,0,0,0,.7,2.56,2.36,2.36,0,0,0,2.08,1.38,2.32,2.32,0,0,0,1.08-.28q1.36-.71,1.34-3.61m16.93,6.23c-2.06,0-3.71.05-4.94.05l-.75-.05c-.41,0-1-.08-1.88-.21a5.84,5.84,0,0,1-3.38-2,5.71,5.71,0,0,1-1.23-3.72A6,6,0,0,1,84.51,8,6.5,6.5,0,0,1,89.16,6.2a6,6,0,0,1,4,1.33,4.67,4.67,0,0,1,1.67,3.77v1.36H86.13q.2,3.15,3.11,3.15h5.58Zm-3.63-8.3a1.81,1.81,0,0,0-1.93-1.31,2.91,2.91,0,0,0-2.63,1.31Zm24.18,8.28H112V10.89a1.94,1.94,0,0,0-.63-1.5,2.23,2.23,0,0,0-1.55-.58,2.34,2.34,0,0,0-1.64.48,2.14,2.14,0,0,0-.5,1.6V18.4h-3.39V10.89a2,2,0,0,0-.63-1.5,2.24,2.24,0,0,0-1.56-.58,2.32,2.32,0,0,0-1.63.48,2.12,2.12,0,0,0-.5,1.6V18.4h-3.4V10.28a3.51,3.51,0,0,1,1.85-3.1,6.91,6.91,0,0,1,3.68-1A5.77,5.77,0,0,1,106,7.56a5.09,5.09,0,0,1,3.86-1.36,7,7,0,0,1,3.68,1,3.5,3.5,0,0,1,1.88,3.1Zm5.94-15.19a2.09,2.09,0,0,1-.54,1.46,1.81,1.81,0,0,1-1.39.59A1.74,1.74,0,0,1,118,4.68a2.08,2.08,0,0,1-.51-1.45A2.09,2.09,0,0,1,118,1.78a2,2,0,0,1,2.77,0,2,2,0,0,1,.53,1.44m-.23,15.19h-3.4V6.06h3.4Zm13.76-5.33a5.32,5.32,0,0,1-1.65,4,6.29,6.29,0,0,1-8.7-.38A6.78,6.78,0,0,1,122.84,12a6.5,6.5,0,0,1,1.59-4.47,5.38,5.38,0,0,1,4.25-1.81,3.88,3.88,0,0,1,2.78,1.11v-.8h3.4Zm-3.4-.87v-.95a3,3,0,0,0-.7-1.93A2.15,2.15,0,0,0,129,8.46,2.33,2.33,0,0,0,127,9.71a4.48,4.48,0,0,0-.7,2.44,5,5,0,0,0,.7,2.56A2.37,2.37,0,0,0,129,16.1a2.31,2.31,0,0,0,1.08-.28q1.36-.71,1.34-3.61m-26.2,15.41.24,1.06h0l.26-1.08,1.69-4.79h.83l-2.65,7.11h-.37l-2.7-7.11h.91Zm3.86-4.81h3.81v.74h-3v2.29h2.73v.74h-2.73v2.49h3v.74h-3.86Zm5.36.07c.25,0,.54-.08.88-.11s.63,0,.91,0a3.74,3.74,0,0,1,.88.1,2,2,0,0,1,.73.33,1.68,1.68,0,0,1,.5.6,2,2,0,0,1,.19.9A1.94,1.94,0,0,1,118.1,26a2.18,2.18,0,0,1-1.14.68l.48.37,1.74,2.77h-1l-1.93-3-1-.15V29.8h-.83Zm1.8.57h-.54l-.25,0-.19,0v2.58h.78a1.84,1.84,0,0,0,1.14-.34,1.24,1.24,0,0,0,.45-1.06,1.17,1.17,0,0,0-.37-.89A1.44,1.44,0,0,0,116.27,23.44Zm10.43.95a3.26,3.26,0,0,1-.2,1.08,7,7,0,0,1-.51,1.12,11.06,11.06,0,0,1-.71,1.09q-.39.54-.78,1l-.49.43v0l.64-.11h2.18v.74h-4v-.29l.53-.57q.31-.34.64-.76t.66-.88a10.57,10.57,0,0,0,.59-.94,5.87,5.87,0,0,0,.42-1,2.77,2.77,0,0,0,.16-.89,1.21,1.21,0,0,0-.28-.82,1.06,1.06,0,0,0-.85-.32,1.86,1.86,0,0,0-.74.15,2.9,2.9,0,0,0-.62.35l-.33-.57a2.6,2.6,0,0,1,.83-.47,3.07,3.07,0,0,1,1-.17,2.14,2.14,0,0,1,.76.13,1.56,1.56,0,0,1,.56.35,1.54,1.54,0,0,1,.35.54A1.91,1.91,0,0,1,126.7,24.39Zm1.48,5a.58.58,0,0,1,.15-.42.56.56,0,0,1,.42-.16.59.59,0,0,1,.43.16.64.64,0,0,1,0,.84.58.58,0,0,1-.43.16.55.55,0,0,1-.42-.16A.58.58,0,0,1,128.18,29.34Zm2.08-3a5.07,5.07,0,0,1,.58-2.71,2.11,2.11,0,0,1,3.46,0,5.36,5.36,0,0,1,.54,2.73,5.06,5.06,0,0,1-.58,2.71,1.91,1.91,0,0,1-1.71.91,1.86,1.86,0,0,1-1.74-1A5.36,5.36,0,0,1,130.26,26.3Zm.83,0a7.58,7.58,0,0,0,.08,1.19,3.45,3.45,0,0,0,.27.92,1.61,1.61,0,0,0,.46.6,1,1,0,0,0,.65.21,1.17,1.17,0,0,0,1.12-.71A5.19,5.19,0,0,0,134,26.3a8.64,8.64,0,0,0-.08-1.18,3.43,3.43,0,0,0-.25-.93,1.5,1.5,0,0,0-.46-.6,1.12,1.12,0,0,0-.69-.21,1.16,1.16,0,0,0-1.1.71A5.18,5.18,0,0,0,131.09,26.3Z"/></g></g></svg>